inDegrees=no
num_controls=7
num_derivatives=13
num_iterations=110
num_multipliers=7
num_parameters=0
num_slacks=7
num_states=26
objective=5.582835
objective_accelerations=0.870710
objective_balance=0.026126
objective_effort=0.200775
objective_height=4.435255
objective_ligament=0.049970
solver_duration=1322.626154
status=Solve_Succeeded
success=true
DataType=double
version=3
OpenSimVersion=4.4-2022-07-23-0e9fedc
endheader
time	/jointset/ground_pelvis/pelvis_tilt/value	/jointset/ground_pelvis/pelvis_tx/value	/jointset/ground_pelvis/pelvis_ty/value	/jointset/hip_l/hip_flexion_l/value	/jointset/hip_l/hip_adduction_l/value	/jointset/hip_l/hip_rotation_l/value	/jointset/back/lumbar_extension/value	/jointset/patellofemoral_l/patellar_flexion_l/value	/jointset/knee_l/knee_flexion_l/value	/jointset/knee_l/knee_adduction_l/value	/jointset/knee_l/knee_rotation_l/value	/jointset/ankle_l/ankle_angle_l/value	/jointset/subtalar_l/subtalar_angle_l/value	/jointset/ground_pelvis/pelvis_tilt/speed	/jointset/ground_pelvis/pelvis_tx/speed	/jointset/ground_pelvis/pelvis_ty/speed	/jointset/hip_l/hip_flexion_l/speed	/jointset/hip_l/hip_adduction_l/speed	/jointset/hip_l/hip_rotation_l/speed	/jointset/back/lumbar_extension/speed	/jointset/patellofemoral_l/patellar_flexion_l/speed	/jointset/knee_l/knee_flexion_l/speed	/jointset/knee_l/knee_adduction_l/speed	/jointset/knee_l/knee_rotation_l/speed	/jointset/ankle_l/ankle_angle_l/speed	/jointset/subtalar_l/subtalar_angle_l/speed	/forceset/tau_hip_flexion_l	/forceset/tau_hip_adduction_l	/forceset/tau_hip_rotation_l	/forceset/tau_knee_flexion_l	/forceset/tau_ankle_angle_l	/forceset/tau_subtalar_angle_l	/forceset/tau_lumbar_extension	lambda_cid13_p0	lambda_cid13_p1	lambda_cid13_p2	lambda_cid13_p3	lambda_cid13_p4	lambda_cid13_p5	lambda_cid14_p0	/jointset/ground_pelvis/pelvis_tilt/accel	/jointset/ground_pelvis/pelvis_tx/accel	/jointset/ground_pelvis/pelvis_ty/accel	/jointset/hip_l/hip_flexion_l/accel	/jointset/hip_l/hip_adduction_l/accel	/jointset/hip_l/hip_rotation_l/accel	/jointset/back/lumbar_extension/accel	/jointset/patellofemoral_l/patellar_flexion_l/accel	/jointset/knee_l/knee_flexion_l/accel	/jointset/knee_l/knee_adduction_l/accel	/jointset/knee_l/knee_rotation_l/accel	/jointset/ankle_l/ankle_angle_l/accel	/jointset/subtalar_l/subtalar_angle_l/accel	gamma_cid13_p0	gamma_cid13_p1	gamma_cid13_p2	gamma_cid13_p3	gamma_cid13_p4	gamma_cid13_p5	gamma_cid14_p0
1	-0.5347202094844226	-0.01034733449606662	0.5509957435212192	1.886805477202833	-0.3392524494998339	0.1484525537774332	-0.43632792279374	1.603093656308483	1.603093656308446	0.09208005388787126	-0.1745269530391148	0.4342880094686938	0.2606711018134749	-0.152150859427567	-0.00708464718156556	0.03452502203108056	0.0356986278771829	0.0004428499109370262	-0.05121001579845937	1.407625232559854e-05	-0.1596751247003306	-0.1596751247003514	-0.01333302279385649	-4.506051841930667e-06	-0.0580211652509867	-0.03561964343621454	-0.2822038809712293	0.0404757942261088	-0.02144904707571469	-0.2749745672439065	-0.05739533466567458	0.006710304147070182	0.2327095077793333	-52.08998592405803	11.93930510752059	-8.732939554189578	9.674283793812609	-553.649318829671	-56.96161031925961	-0.02328602605449078	1.662442934812931	0.1371035534335733	2.255444803262272	-7.330808063803197	-0.280743893119257	-1.56905275216235	-0.01923134558573993	-5.970800162094711	-5.970800162094714	-1.069485896191882	-0.03624122208821225	-0.8303603556031464	-0.9611371282548586	1.258863447454729e-09	-1.931958970207024e-07	-1.170257572332742e-07	-2.257368485885773e-08	-9.726278806029025e-09	-3.189192530114965e-07	1.612928057017627e-08
1.01	-0.5361593186816869	-0.01041130520425108	0.5514535453955599	1.886796996822945	-0.3392612989281	0.1478651527501142	-0.4363277961651329	1.601198809603201	1.601198809603194	0.09189115110090713	-0.1745269926234382	0.4336662710198226	0.2602680967599511	-0.1356588624808782	-0.005700184012400907	0.05702490484929586	-0.03738062477332345	-0.002207809658799993	-0.06626115025319143	1.127787941686586e-05	-0.2192849407260784	-0.2192849407260468	-0.02444093939241981	-3.339346314942709e-06	-0.06633977786252618	-0.04497452313501096	-0.2825479885656159	0.04046471705565133	-0.02142961954987206	-0.274118085898271	-0.0574954264397208	0.006756689408829176	0.232871743751843	-52.07713752905011	11.87792235285611	-8.678620044194	9.519469535145799	-553.432765964893	-56.8781590617984	-0.02330138533922066	1.644396569038556	0.1405069649161474	2.245689676411583	-7.294371223020062	-0.2564643785768033	-1.471791406591334	0.009200177151773318	-5.954685247143351	-5.954685247135473	-1.130464355665191	0.0182550714793349	-0.8346102725526875	-0.9215769112401223	2.410922110388139e-09	-2.511388948916416e-07	-1.672290417665014e-07	-3.636083201697481e-08	-1.567241707771145e-08	-4.09449347078826e-07	2.129206422063213e-08
1.02	-0.5374331442105961	-0.0104611534274922	0.5521360320291447	1.88605814644508	-0.3392965024299963	0.1471275108553434	-0.4363276966681531	1.598708142152796	1.598708142152826	0.09159136518512205	-0.1745270286497829	0.4329609467331097	0.2597717602053315	-0.1190941257565188	-0.0042601501928963	0.07946197387994071	-0.1103753717176519	-0.004827964815576329	-0.08125818928643445	8.649918325341272e-06	-0.2788392737249672	-0.2788392737248833	-0.03550964855003745	-3.794456541626596e-06	-0.07473833281900112	-0.05428594365573218	-0.282892096160026	0.04045363988520116	-0.02141019202411198	-0.2732616045526362	-0.05759551821376083	0.006803074670605726	0.2330339797243273	-52.06722987019503	11.81518737334041	-8.621951796548936	9.362348255936691	-553.3145833039786	-56.79477057002546	-0.02331884352723596	1.676990890347149	0.148217683501507	2.242882045748171	-7.31390692256761	-0.2746430105270737	-1.558233667864597	-0.01919726322251655	-5.959703556722909	-5.959703556722912	-1.061644408002649	-0.03656558523890431	-0.8463488245903398	-0.9524452926398126	3.308622603853229e-09	-3.06018517918846e-07	-2.140954538388865e-07	-4.918092455348536e-08	-2.139515037278023e-08	-4.914707361176007e-07	2.572318285652896e-08
1.03	-0.5385409035011046	-0.01049626493139924	0.553042488600454	1.884589916644997	-0.3393577260428191	0.1462401505173546	-0.4363276339066724	1.595622323192047	1.595622323192062	0.09118120577904723	-0.174527075200442	0.4321711741739478	0.2591825560092125	-0.1024405579421613	-0.002747022916402875	0.1018102921371711	-0.1832422120388088	-0.007408726504136438	-0.09619979458001375	3.069197390735776e-06	-0.3383038489357839	-0.3383038489357489	-0.04651104443481273	-4.571526345398973e-06	-0.08323543612676555	-0.06354447604626404	-0.2829313746658166	0.04042352965220421	-0.02133398025313333	-0.272312758424495	-0.05747349229180316	0.006908409305894606	0.2330147629819596	-51.9538073007853	11.70114929452314	-8.548450487669724	9.105871536913014	-552.8902727273446	-56.76707087804991	-0.02334185304350063	1.662116171822174	0.1551169245120111	2.227944021180279	-7.26881601549124	-0.248549462165159	-1.460016562151695	0.008636545402688068	-5.936740136052851	-5.936740136060176	-1.117722890660438	0.01823047452904477	-0.8542947151316612	-0.9109055805246934	4.20372760579313e-09	-3.608668820190735e-07	-2.609278161922834e-07	-6.199114918569379e-08	-2.711560402523051e-08	-5.734053016356758e-07	3.014683552288948e-08
1.04	-0.5394816118245006	-0.01051579382758357	0.5541718558154296	1.882393869755977	-0.3394445086153554	0.1452037956060153	-0.4363276519479238	1.591942477352631	1.591942477352642	0.09066136527166317	-0.1745271166733236	0.4312958498554533	0.2585010968155367	-0.08568393233411964	-0.001143628648352339	0.124044102613213	-0.2559387895040212	-0.009939756758490188	-0.1110571039554782	-7.510646266236897e-06	-0.3976446494582711	-0.397644649458285	-0.05744586879739572	-2.778900944635415e-06	-0.0918486846850177	-0.07273694316738974	-0.2829706531716563	0.04039341941922368	-0.02125776848233001	-0.271363912296354	-0.05735146636983118	0.007013743941222835	0.232995546239541	-51.84361804586676	11.58587507773598	-8.472693045937303	8.847866364253846	-552.5655611896551	-56.74012439130836	-0.02336689322148398	1.697602449084073	0.1662710818128727	2.219980489510461	-7.279854351378699	-0.2646967236857546	-1.541374484241688	-0.02019708776686379	-5.934948619057001	-5.934948619057001	-1.04833010356408	-0.03605164619796061	-0.8695778746879878	-0.9392322387585778	5.022948288463777e-09	-4.109203262438074e-07	-3.024764643928187e-07	-7.393770639936131e-08	-3.215722115548543e-08	-6.432652016882625e-07	3.354898444591299e-08
1.05	-0.5402541862544957	-0.01051878919482196	0.5555228913078148	1.87947188845184	-0.3395563359947212	0.1440192387570624	-0.4363278200636774	1.587669975275943	1.587669975275933	0.09003265073645404	-0.1745271537679771	0.4303337388867322	0.2577280462028481	-0.06880957739438981	0.000564386737229991	0.1461342859080812	-0.3284112298002501	-0.01241479552287736	-0.125834993083759	-2.805551817429223e-05	-0.4568217564657642	-0.4568217564658551	-0.0682812903260531	-3.54205350882564e-06	-0.1005994884231774	-0.08185995501910602	-0.2826998784931491	0.04035397088234146	-0.02112829881118062	-0.2702860299370508	-0.05704664803552301	0.007174344464494609	0.2327853116201566	-51.64231108623093	11.42197376985851	-8.379279096465815	8.51189951270857	-551.906470303017	-56.75651199168804	-0.02339761362331031	1.685558124810573	0.1760242053962632	2.199223269844181	-7.224003178746626	-0.2372168384038979	-1.443112392082136	0.006725359986428984	-5.903997747437657	-5.9039977474492	-1.098805328550472	0.01797569716447332	-0.8817477503680025	-0.8967373584556658	5.83979758615726e-09	-4.60823929222432e-07	-3.43859996526077e-07	-8.585727400619942e-08	-3.717762464442174e-08	-7.127477684450525e-07	3.691921137695722e-08
1.06	-0.5408573759134107	-0.01050411292051144	0.5570939658372227	1.875826569882749	-0.3396925756388459	0.1426874797638308	-0.4363282519185164	1.582806720928012	1.582806720927981	0.08929605055563627	-0.1745271856247673	0.4292833366552296	0.2568641851316278	-0.05180697811893905	0.002390699661430658	0.1680519100177348	-0.4006062424965424	-0.01482220971081893	-0.1404975328104738	-6.025851449834433e-05	-0.5157951037069428	-0.5157951037071107	-0.07902299789605609	-1.731328071330426e-06	-0.1095069372408595	-0.09089903487392402	-0.2824291038146227	0.04031452234547973	-0.02099882914032416	-0.2692081475777564	-0.0567418297012123	0.007334944987806873	0.2325750770007951	-51.44462503614012	11.25697302182162	-8.28370945425703	8.175340940357586	-551.3486410027684	-56.77470043312326	-0.02343029650786622	1.723251316228364	0.1899305895364822	2.185468652467523	-7.224368831391356	-0.2511718083965905	-1.518304603928579	-0.02252871264907193	-5.894196665794103	-5.894196665794095	-1.02958731183308	-0.03553687059760272	-0.9009068905925844	-0.9224458393789301	5.956593308148815e-09	-5.045488058134818e-07	-3.790962760950197e-07	-9.490360258162832e-08	-4.193697207933514e-08	-7.688840756933665e-07	3.940097501632989e-08
